<svg xmlns="http://www.w3.org/2000/svg" viewBox="0 0 192 192" width="192" height="192">
  <rect width="192" height="192" fill="#FBEFE3"/>
  <g transform="translate(96 96) scale(0.62) translate(-96 -96)">
    <circle cx="146" cy="50" r="18" fill="#F6C453"/>
    <path d="M28 96c0-27 22-44 46-44s46 17 46 44z" fill="#2FA8B5"/>
    <path d="M74 96v46" stroke="#12365B" stroke-width="9" stroke-linecap="round"/>
    <g fill="none" stroke="#2FA8B5" stroke-width="8" stroke-linecap="round">
      <path d="M20 150c14-12 28 12 42 0s28 12 42 0 28 12 42 0 28 12 42 0"/>
      <path d="M20 170c14-12 28 12 42 0s28 12 42 0 28 12 42 0 28 12 42 0"/>
    </g>
  </g>
</svg>
